<!DOCTYPE svg PUBLIC "-//W3C//DTD SVG 20010904//EN" "http://www.w3.org/TR/2001/REC-SVG-20010904/DTD/svg10.dtd">
<svg version="1.0" xmlns="http://www.w3.org/2000/svg" width="398px" height="160px" viewBox="0 0 3980 1600" preserveAspectRatio="xMidYMid meet">
<g id="layer101" fill="#060606" stroke="none">
 <path d="M465 1406 c-43 -19 -66 -49 -72 -94 -5 -35 -1 -44 29 -77 29 -32 42 -38 85 -42 29 -3 65 -1 82 5 l31 11 0 -39 c0 -52 -23 -74 -69 -66 -19 3 -48 15 -63 26 -41 30 -71 26 -50 -7 25 -39 184 -57 261 -30 60 21 70 46 73 190 l3 127 -77 0 c-61 0 -78 -3 -78 -14 0 -12 -4 -12 -30 0 -43 22 -91 26 -125 10z m133 -42 c18 -13 22 -24 22 -74 0 -55 -2 -60 -25 -66 -47 -12 -55 -1 -55 74 0 87 11 99 58 66z"/>
 <path d="M1125 1265 c-131 -203 -135 -203 -135 -5 l0 150 -75 0 -75 0 0 -150 c0 -143 -1 -150 -20 -150 -11 0 -20 -4 -20 -10 0 -5 8 -10 18 -10 11 0 22 -12 30 -33 7 -18 26 -41 44 -52 43 -25 131 -26 155 -2 22 22 8 35 -19 18 -25 -16 -38 -2 -38 42 l0 28 103 -2 102 -2 46 77 c26 43 50 78 54 79 4 1 27 -34 51 -78 39 -72 63 -98 64 -70 1 12 -173 325 -180 324 -3 0 -50 -69 -105 -154z"/>
 <path d="M2638 1405 c-76 -42 -21 -136 70 -121 80 13 99 86 31 121 -35 19 -66 18 -101 0z"/>
 <path d="M3374 1410 c-18 -6 -48 -28 -67 -49 -102 -113 -26 -281 126 -281 76 0 157 75 157 146 l0 34 -95 0 -96 0 3 62 c2 52 6 63 21 66 33 6 67 -8 107 -44 41 -37 69 -39 50 -4 -27 50 -143 89 -206 70z m94 -234 c-3 -62 -20 -85 -52 -73 -12 5 -16 20 -16 69 l0 63 35 0 36 0 -3 -59z"/>
 <path d="M3694 1404 c-45 -22 -54 -51 -54 -179 0 -107 -1 -114 -20 -117 -25 -4 -22 -23 3 -22 9 0 17 -7 17 -15 0 -14 44 -39 142 -79 4 -2 8 18 8 45 0 49 0 50 30 45 23 -3 30 0 30 12 0 11 -9 16 -30 16 l-30 0 0 130 c0 108 3 130 15 130 8 0 21 -13 30 -30 18 -34 35 -39 35 -11 0 28 -53 77 -91 85 -43 8 -50 8 -85 -10z"/>
 <path d="M110 1250 l0 -160 70 0 c39 0 73 -1 78 -2 4 -2 8 7 10 19 l3 23 33 -25 c36 -27 91 -33 99 -11 9 22 -13 35 -48 29 -27 -4 -39 0 -59 20 -25 25 -26 30 -26 147 l0 120 -80 0 -80 0 0 -160z"/>
 <path d="M1435 1250 l0 -160 68 0 c37 0 70 1 74 3 4 1 8 73 8 159 l0 158 -75 0 -75 0 0 -160z"/>
 <path d="M1650 1252 c0 -87 2 -161 4 -163 2 -2 36 -3 75 -1 68 4 71 5 71 29 l0 25 36 -32 c43 -37 99 -40 99 -5 0 17 -6 20 -36 17 -27 -2 -44 3 -68 23 l-31 27 0 119 0 119 -75 0 -75 0 0 -158z"/>
 <path d="M1960 1210 l0 -200 81 0 81 0 -4 99 -3 99 55 -48 c30 -26 65 -52 77 -59 31 -16 73 -14 73 4 0 9 -10 15 -26 15 -21 0 -57 13 -72 25 -4 3 104 181 134 222 13 17 24 34 24 37 0 3 -38 6 -84 6 l-84 0 -46 -77 -46 -78 0 78 0 77 -80 0 -80 0 0 -200z"/>
 <path d="M2392 1248 l3 -162 75 0 75 0 0 162 0 162 -78 0 -77 0 2 -162z"/>
 <path d="M2834 1251 l1 -160 74 -3 c63 -3 75 0 79 14 4 16 7 16 43 -2 65 -34 166 -19 183 25 3 9 6 77 6 151 l0 134 -75 0 -75 0 0 -140 c0 -154 -6 -168 -55 -136 -25 16 -25 19 -25 146 l0 130 -78 0 -79 0 1 -159z"/>
 <path d="M1462 1060 c-60 -25 -26 -80 49 -80 66 0 102 39 64 70 -19 16 -85 22 -113 10z"/>
 <path d="M2412 1054 c-47 -32 -15 -74 57 -74 53 0 86 24 75 54 -14 35 -93 48 -132 20z"/>
 <path d="M2235 863 c-22 -2 -141 -15 -265 -28 -124 -13 -315 -33 -425 -45 -207 -21 -579 -60 -815 -85 -74 -8 -247 -26 -385 -40 -325 -33 -325 -33 -325 -55 0 -10 7 -21 15 -24 9 -3 138 -10 288 -16 643 -24 779 -30 1087 -41 466 -16 471 -20 283 -209 -65 -66 -119 -127 -121 -135 -6 -25 44 -28 151 -11 56 9 298 44 537 77 239 33 530 73 645 89 420 58 581 80 635 86 30 3 118 14 195 25 77 10 156 19 177 19 20 0 39 4 42 8 3 5 -169 14 -382 20 -213 7 -506 17 -652 22 -146 5 -400 15 -565 20 -165 6 -304 15 -308 19 -5 5 60 67 142 140 83 72 151 136 151 141 0 18 -44 28 -105 23z"/>
 </g>

</svg>